<?xml version="1.0" encoding="utf-8"?>
<!-- Generator: Adobe Illustrator 18.1.1, SVG Export Plug-In . SVG Version: 6.00 Build 0)  -->
<!DOCTYPE svg PUBLIC "-//W3C//DTD SVG 1.0//EN" "http://www.w3.org/TR/2001/REC-SVG-20010904/DTD/svg10.dtd">
<svg version="1.0" id="Layer_1" xmlns="http://www.w3.org/2000/svg" xmlns:xlink="http://www.w3.org/1999/xlink" x="0px" y="0px"
	 viewBox="0 0 13 10" enable-background="new 0 0 13 10" xml:space="preserve">
<path id="Twitter_2_" fill="#FFFFFF" d="M12.7,1.2c-0.5,0.2-0.9,0.3-1.4,0.4c0.5-0.3,0.9-0.8,1.1-1.4c-0.5,0.3-1,0.5-1.6,0.6
	C10.2,0.3,9.6,0,8.9,0C7.5,0,6.3,1.1,6.3,2.5c0,0.2,0,0.4,0.1,0.6C4.3,3,2.4,2,1.2,0.5C1,0.8,0.9,1.3,0.9,1.7c0,0.9,0.4,1.6,1.1,2.1
	c-0.4,0-0.8-0.1-1.1-0.3c0,0,0,0,0,0c0,1.2,0.9,2.2,2,2.5C2.7,6.1,2.4,6.1,2.2,6.1c-0.2,0-0.3,0-0.5,0C2,7.1,3,7.8,4.1,7.8
	c-0.9,0.7-2,1.1-3.1,1.1c-0.2,0-0.4,0-0.6,0C1.5,9.6,2.8,10,4.2,10c4.6,0,7.2-3.8,7.2-7.2c0-0.1,0-0.2,0-0.3
	C11.9,2.1,12.3,1.7,12.7,1.2z"/>
</svg>
